<?xml version="1.0" encoding="UTF-8"?>
<svg id="Logos" xmlns="http://www.w3.org/2000/svg" viewBox="0 0 217.91 50">
  <defs>
    <style>
      .cls-1 {
        fill: #fd441e;
      }
    </style>
  </defs>
  <g id="nuam">
    <path class="cls-1" d="M44.19,15.02l-12.88,1.67c-3.77.49-6.59,3.7-6.59,7.5v1.08l17.13-2.09-17.13,14.82V4.96c0-.81-.16-1.61-.55-2.32C23.12.69,21.05-.26,19.01.06c-1.43.23-2.68,1.08-3.43,2.32L0,28.28l15.3-1.87c1.06-.13,2.01.68,2.04,1.75l.22,7,.36,11.33c.05,1.45.94,2.78,2.3,3.28,1.37.5,2.84.14,3.81-.96l23.86-26.76c2.62-2.93.19-7.54-3.71-7.04"/>
    <path class="cls-1" d="M108.88,48.94c9.53,0,14.68-6.9,14.68-15.04v-16.38h-7.33v22.13c0,.96-.78,1.74-1.75,1.74h-11.22c-.96,0-1.74-.78-1.74-1.74v-22.13h-7.33v16.35c0,9.58,6.51,15.07,14.68,15.07"/>
    <path class="cls-1" d="M75.41,17.52h-17.38v30.75h7.33v-23.87h13.68c.96,0,1.75.78,1.75,1.74v22.13h7.33v-18.05c0-7.02-5.69-12.71-12.71-12.71"/>
    <path class="cls-1" d="M147.44,17.51h-15.56v6.88h17.21c.86,0,1.56.7,1.56,1.56l-.02,3.8h-12c-4.84,0-9.23,3.46-9.23,9.65,0,5.16,5,9.52,11.09,9.52,5.07,0,10.14-3.33,10.14-7.55h-13.45c-.99,0-1.78-.8-1.78-1.78v-2.34c0-.99.8-1.78,1.78-1.78h13.45v12.79h6.78s0-20.79,0-20.79c0-5.5-4.46-9.96-9.96-9.96"/>
    <path class="cls-1" d="M191.49,22.72h0s0-.01,0-.01l-.52-.55c-2.85-2.97-6.67-4.62-10.76-4.64h-15.13s0,15.46,0,15.46v15.29h7.33v-23.87h13.68c.96,0,1.74.78,1.74,1.74v6.28s0,.08,0,.13v15.72h7.33v-22.09c0-.98.8-1.78,1.78-1.78h11.9c.96,0,1.75.78,1.75,1.74v22.13h7.33v-18.05c0-5.86-4.19-12.71-13.76-12.71-8.06,0-11.35,3.7-12.65,5.2"/>
  </g>
</svg>